<svg width="1881" height="1254" viewBox="0 0 1881 1254" fill="none" xmlns="http://www.w3.org/2000/svg">
<path opacity="0.3" d="M1107.66 94.149C1107.66 94.149 1088.72 63.1839 1059.45 64.8888C1030.19 66.5938 1019.88 85.549 1011.28 99.314C1002.67 113.079 999.238 104.479 976.866 97.584C954.495 90.6889 944.262 102.749 938.995 114.784C933.729 126.819 935.559 118.219 914.919 114.784C894.278 111.349 893.726 123.66 880.484 130.279C869.699 135.67 867.392 135.896 855.404 132.661C840.531 128.649 835.666 131.984 832.23 138.879H1181.39C1181.39 138.879 1174.77 111.299 1159.27 104.479C1143.77 97.6592 1123.13 111.349 1107.66 94.149Z" stroke="black" stroke-width="10" stroke-miterlimit="10"/>
<path opacity="0.3" d="M492.045 163.1C492.045 163.1 481.511 145.875 465.209 146.827C448.907 147.78 443.189 158.336 438.399 165.983C433.608 173.63 431.702 168.866 419.237 165.03C406.773 161.194 401.054 167.889 398.17 174.608C395.286 181.328 396.264 176.514 384.752 174.608C373.241 172.703 372.99 179.623 365.616 183.208C359.597 186.217 358.318 186.342 351.697 184.537C343.421 182.306 340.712 184.186 338.781 187.997H533.075C533.075 187.997 529.389 172.678 520.761 168.866C512.134 165.055 500.647 172.678 492.045 163.1Z" stroke="black" stroke-width="10" stroke-miterlimit="10"/>
<path opacity="0.3" d="M1804.26 360.148C1804.26 360.148 1798.76 351.172 1790.29 351.673C1781.81 352.175 1778.82 357.666 1776.32 361.703C1773.81 365.739 1772.83 363.207 1766.28 361.201C1765.24 360.744 1764.11 360.513 1762.98 360.522C1761.84 360.531 1760.72 360.781 1759.68 361.254C1758.65 361.728 1757.72 362.414 1756.97 363.269C1756.22 364.125 1755.66 365.129 1755.32 366.216C1753.82 369.701 1754.32 367.219 1748.33 366.216C1742.33 365.213 1742.18 368.723 1738.3 370.704C1737.25 371.425 1736.03 371.867 1734.76 371.99C1733.49 372.113 1732.22 371.912 1731.05 371.406C1726.73 370.228 1725.33 371.205 1724.33 373.186H1825.52C1825.52 373.186 1823.62 365.213 1819.13 363.157C1814.64 361.101 1808.74 365.138 1804.26 360.148Z" stroke="black" stroke-width="10" stroke-miterlimit="10"/>
<path opacity="0.3" d="M1162.18 173.003C1162.18 173.003 1156.69 164.027 1148.21 164.529C1139.74 165.03 1136.73 170.521 1134.24 174.558C1131.76 178.595 1130.73 176.037 1124.21 174.057C1123.17 173.595 1122.04 173.361 1120.9 173.367C1119.76 173.374 1118.63 173.623 1117.59 174.097C1116.55 174.571 1115.63 175.259 1114.88 176.116C1114.12 176.974 1113.56 177.981 1113.23 179.071C1111.75 182.556 1112.22 180.049 1106.25 179.071C1100.28 178.093 1100.11 181.578 1096.22 183.559C1095.17 184.276 1093.95 184.714 1092.69 184.832C1091.42 184.951 1090.14 184.746 1088.97 184.236C1084.66 183.083 1083.26 184.061 1082.25 186.041H1183.45C1183.45 186.041 1181.54 178.068 1177.05 176.012C1172.57 173.956 1166.67 178.018 1162.18 173.003Z" stroke="black" stroke-width="10" stroke-miterlimit="10"/>
<g opacity="0.3">
<path opacity="0.3" d="M65.1829 957.186H144.536V239.798H353.252V581.242H398.095V1005.48H449.86V372.233H546.443V115.662H701.688V588.137H760.35V400.19H891.443V441.56H1003.55V1000.29H1048.39V898.54H1170.88V998.556H1229.52V495.041H1427.88V967.516H1484.81V308.799H1553.81V188.072H1588.32V119.097H1643.52V565.721H1733.2V991.661H1802.2" stroke="black" stroke-width="10" stroke-miterlimit="10"/>
<path opacity="0.3" d="M353.252 217.383H144.536V239.798H353.252V217.383Z" stroke="black" stroke-width="10" stroke-miterlimit="10"/>
<path opacity="0.3" d="M546.443 372.233H449.258V383.591H546.443V372.233Z" stroke="black" stroke-width="10" stroke-miterlimit="10"/>
<path opacity="0.3" d="M701.688 115.662H545.992V126.694H701.688V115.662Z" stroke="black" stroke-width="10" stroke-miterlimit="10"/>
<path opacity="0.3" d="M795.362 376.746H772.69V400.165H795.362V376.746Z" stroke="black" stroke-width="10" stroke-miterlimit="10"/>
<path opacity="0.3" d="M854.3 386.575H842.964V400.165H854.3V386.575Z" stroke="black" stroke-width="10" stroke-miterlimit="10"/>
<path opacity="0.3" d="M1003.93 441.56H891.443V455.3H1003.93V441.56Z" stroke="black" stroke-width="10" stroke-miterlimit="10"/>
<path opacity="0.3" d="M1427.85 484.786H1229.52V495.041H1427.85V484.786Z" stroke="black" stroke-width="10" stroke-miterlimit="10"/>
<path opacity="0.3" d="M1359.11 464.376H1280.51V484.786H1359.11V464.376Z" stroke="black" stroke-width="10" stroke-miterlimit="10"/>
<path opacity="0.3" d="M1342.46 465.129V446.249H1399.89V484.034" stroke="black" stroke-width="10" stroke-miterlimit="10"/>
<path opacity="0.3" d="M963.95 435.919V283.274H1145.73V409.768H1208.25V194.591H1408.94V454.824H1471.49" stroke="black" stroke-width="10" stroke-miterlimit="10"/>
<path opacity="0.3" d="M833.057 360.324V191.683H709.438" stroke="black" stroke-width="10" stroke-miterlimit="10"/>
<path opacity="0.3" d="M443.314 402.496H402.584V284.729H363.309" stroke="black" stroke-width="10" stroke-miterlimit="10"/>
<path opacity="0.3" d="M137.915 370.503H104.458V828.486" stroke="black" stroke-width="10" stroke-miterlimit="10"/>
<path opacity="0.3" d="M1532.56 286.183V230.922H1550.02" stroke="black" stroke-width="10" stroke-miterlimit="10"/>
<path opacity="0.3" d="M1650.36 232.376H1712.89V463.549H1819.05V731.053" stroke="black" stroke-width="10" stroke-miterlimit="10"/>
<path opacity="0.3" d="M573.805 148.056H558.205V178.595H573.805V148.056Z" stroke="black" stroke-width="10" stroke-miterlimit="10"/>
<path opacity="0.3" d="M601.895 148.056H586.295V178.595H601.895V148.056Z" stroke="black" stroke-width="10" stroke-miterlimit="10"/>
<path opacity="0.3" d="M629.984 148.056H614.385V178.595H629.984V148.056Z" stroke="black" stroke-width="10" stroke-miterlimit="10"/>
<path opacity="0.3" d="M658.074 148.056H642.474V178.595H658.074V148.056Z" stroke="black" stroke-width="10" stroke-miterlimit="10"/>
<path opacity="0.3" d="M686.164 148.056H670.564V178.595H686.164V148.056Z" stroke="black" stroke-width="10" stroke-miterlimit="10"/>
<path opacity="0.3" d="M573.805 199.681H558.205V230.22H573.805V199.681Z" stroke="black" stroke-width="10" stroke-miterlimit="10"/>
<path opacity="0.3" d="M601.895 199.681H586.295V230.22H601.895V199.681Z" stroke="black" stroke-width="10" stroke-miterlimit="10"/>
<path opacity="0.3" d="M629.984 199.681H614.385V230.22H629.984V199.681Z" stroke="black" stroke-width="10" stroke-miterlimit="10"/>
<path opacity="0.3" d="M658.074 199.681H642.474V230.22H658.074V199.681Z" stroke="black" stroke-width="10" stroke-miterlimit="10"/>
<path opacity="0.3" d="M686.164 199.681H670.564V230.22H686.164V199.681Z" stroke="black" stroke-width="10" stroke-miterlimit="10"/>
<path opacity="0.3" d="M573.805 251.281H558.205V281.82H573.805V251.281Z" stroke="black" stroke-width="10" stroke-miterlimit="10"/>
<path opacity="0.3" d="M601.895 251.281H586.295V281.82H601.895V251.281Z" stroke="black" stroke-width="10" stroke-miterlimit="10"/>
<path opacity="0.3" d="M629.984 251.281H614.385V281.82H629.984V251.281Z" stroke="black" stroke-width="10" stroke-miterlimit="10"/>
<path opacity="0.3" d="M658.074 251.281H642.474V281.82H658.074V251.281Z" stroke="black" stroke-width="10" stroke-miterlimit="10"/>
<path opacity="0.3" d="M686.164 251.281H670.564V281.82H686.164V251.281Z" stroke="black" stroke-width="10" stroke-miterlimit="10"/>
<path opacity="0.3" d="M573.805 302.907H558.205V333.445H573.805V302.907Z" stroke="black" stroke-width="10" stroke-miterlimit="10"/>
<path opacity="0.3" d="M601.895 302.907H586.295V333.445H601.895V302.907Z" stroke="black" stroke-width="10" stroke-miterlimit="10"/>
<path opacity="0.3" d="M629.984 302.907H614.385V333.445H629.984V302.907Z" stroke="black" stroke-width="10" stroke-miterlimit="10"/>
<path opacity="0.3" d="M658.074 302.907H642.474V333.445H658.074V302.907Z" stroke="black" stroke-width="10" stroke-miterlimit="10"/>
<path opacity="0.3" d="M686.164 302.907H670.564V333.445H686.164V302.907Z" stroke="black" stroke-width="10" stroke-miterlimit="10"/>
<path opacity="0.3" d="M573.805 354.507H558.205V385.046H573.805V354.507Z" stroke="black" stroke-width="10" stroke-miterlimit="10"/>
<path opacity="0.3" d="M601.895 354.507H586.295V385.046H601.895V354.507Z" stroke="black" stroke-width="10" stroke-miterlimit="10"/>
<path opacity="0.3" d="M629.984 354.507H614.385V385.046H629.984V354.507Z" stroke="black" stroke-width="10" stroke-miterlimit="10"/>
<path opacity="0.3" d="M658.074 354.507H642.474V385.046H658.074V354.507Z" stroke="black" stroke-width="10" stroke-miterlimit="10"/>
<path opacity="0.3" d="M686.164 354.507H670.564V385.046H686.164V354.507Z" stroke="black" stroke-width="10" stroke-miterlimit="10"/>
<path opacity="0.3" d="M573.805 406.132H558.205V436.671H573.805V406.132Z" stroke="black" stroke-width="10" stroke-miterlimit="10"/>
<path opacity="0.3" d="M601.895 406.132H586.295V436.671H601.895V406.132Z" stroke="black" stroke-width="10" stroke-miterlimit="10"/>
<path opacity="0.3" d="M629.984 406.132H614.385V436.671H629.984V406.132Z" stroke="black" stroke-width="10" stroke-miterlimit="10"/>
<path opacity="0.3" d="M658.074 406.132H642.474V436.671H658.074V406.132Z" stroke="black" stroke-width="10" stroke-miterlimit="10"/>
<path opacity="0.3" d="M686.164 406.132H670.564V436.671H686.164V406.132Z" stroke="black" stroke-width="10" stroke-miterlimit="10"/>
<path opacity="0.3" d="M478.025 406.132H462.425V436.671H478.025V406.132Z" stroke="black" stroke-width="10" stroke-miterlimit="10"/>
<path opacity="0.3" d="M506.114 406.132H490.515V436.671H506.114V406.132Z" stroke="black" stroke-width="10" stroke-miterlimit="10"/>
<path opacity="0.3" d="M534.204 406.132H518.604V436.671H534.204V406.132Z" stroke="black" stroke-width="10" stroke-miterlimit="10"/>
<path opacity="0.3" d="M478.025 456.278H462.425V486.817H478.025V456.278Z" stroke="black" stroke-width="10" stroke-miterlimit="10"/>
<path opacity="0.3" d="M506.114 456.278H490.515V486.817H506.114V456.278Z" stroke="black" stroke-width="10" stroke-miterlimit="10"/>
<path opacity="0.3" d="M534.204 456.278H518.604V486.817H534.204V456.278Z" stroke="black" stroke-width="10" stroke-miterlimit="10"/>
<path opacity="0.3" d="M478.025 506.449H462.425V536.988H478.025V506.449Z" stroke="black" stroke-width="10" stroke-miterlimit="10"/>
<path opacity="0.3" d="M506.114 506.449H490.515V536.988H506.114V506.449Z" stroke="black" stroke-width="10" stroke-miterlimit="10"/>
<path opacity="0.3" d="M534.204 506.449H518.604V536.988H534.204V506.449Z" stroke="black" stroke-width="10" stroke-miterlimit="10"/>
<path opacity="0.3" d="M478.025 556.595H462.425V587.134H478.025V556.595Z" stroke="black" stroke-width="10" stroke-miterlimit="10"/>
<path opacity="0.3" d="M506.114 556.595H490.515V587.134H506.114V556.595Z" stroke="black" stroke-width="10" stroke-miterlimit="10"/>
<path opacity="0.3" d="M534.204 556.595H518.604V587.134H534.204V556.595Z" stroke="black" stroke-width="10" stroke-miterlimit="10"/>
<path opacity="0.3" d="M478.025 606.766H462.425V637.305H478.025V606.766Z" stroke="black" stroke-width="10" stroke-miterlimit="10"/>
<path opacity="0.3" d="M506.114 606.766H490.515V637.305H506.114V606.766Z" stroke="black" stroke-width="10" stroke-miterlimit="10"/>
<path opacity="0.3" d="M534.204 606.766H518.604V637.305H534.204V606.766Z" stroke="black" stroke-width="10" stroke-miterlimit="10"/>
<path opacity="0.3" d="M478.025 656.912H462.425V687.451H478.025V656.912Z" stroke="black" stroke-width="10" stroke-miterlimit="10"/>
<path opacity="0.3" d="M506.114 656.912H490.515V687.451H506.114V656.912Z" stroke="black" stroke-width="10" stroke-miterlimit="10"/>
<path opacity="0.3" d="M534.204 656.912H518.604V687.451H534.204V656.912Z" stroke="black" stroke-width="10" stroke-miterlimit="10"/>
<path opacity="0.3" d="M478.025 707.083H462.425V737.622H478.025V707.083Z" stroke="black" stroke-width="10" stroke-miterlimit="10"/>
<path opacity="0.3" d="M506.114 707.083H490.515V737.622H506.114V707.083Z" stroke="black" stroke-width="10" stroke-miterlimit="10"/>
<path opacity="0.3" d="M534.204 707.083H518.604V737.622H534.204V707.083Z" stroke="black" stroke-width="10" stroke-miterlimit="10"/>
<path opacity="0.3" d="M478.025 757.229H462.425V787.768H478.025V757.229Z" stroke="black" stroke-width="10" stroke-miterlimit="10"/>
<path opacity="0.3" d="M506.114 757.229H490.515V787.768H506.114V757.229Z" stroke="black" stroke-width="10" stroke-miterlimit="10"/>
<path opacity="0.3" d="M534.204 757.229H518.604V787.768H534.204V757.229Z" stroke="black" stroke-width="10" stroke-miterlimit="10"/>
<path opacity="0.3" d="M478.025 807.4H462.425V837.939H478.025V807.4Z" stroke="black" stroke-width="10" stroke-miterlimit="10"/>
<path opacity="0.3" d="M506.114 807.4H490.515V837.939H506.114V807.4Z" stroke="black" stroke-width="10" stroke-miterlimit="10"/>
<path opacity="0.3" d="M534.204 807.4H518.604V837.939H534.204V807.4Z" stroke="black" stroke-width="10" stroke-miterlimit="10"/>
<path opacity="0.3" d="M478.025 857.546H462.425V888.085H478.025V857.546Z" stroke="black" stroke-width="10" stroke-miterlimit="10"/>
<path opacity="0.3" d="M506.114 857.546H490.515V888.085H506.114V857.546Z" stroke="black" stroke-width="10" stroke-miterlimit="10"/>
<path opacity="0.3" d="M534.204 857.546H518.604V888.085H534.204V857.546Z" stroke="black" stroke-width="10" stroke-miterlimit="10"/>
<path opacity="0.3" d="M478.025 907.717H462.425V938.256H478.025V907.717Z" stroke="black" stroke-width="10" stroke-miterlimit="10"/>
<path opacity="0.3" d="M506.114 907.717H490.515V938.256H506.114V907.717Z" stroke="black" stroke-width="10" stroke-miterlimit="10"/>
<path opacity="0.3" d="M534.204 907.717H518.604V938.256H534.204V907.717Z" stroke="black" stroke-width="10" stroke-miterlimit="10"/>
<path opacity="0.3" d="M728.499 612.583H712.899V643.122H728.499V612.583Z" stroke="black" stroke-width="10" stroke-miterlimit="10"/>
<path opacity="0.3" d="M756.588 612.583H740.989V643.122H756.588V612.583Z" stroke="black" stroke-width="10" stroke-miterlimit="10"/>
<path opacity="0.3" d="M728.499 662.729H712.899V693.268H728.499V662.729Z" stroke="black" stroke-width="10" stroke-miterlimit="10"/>
<path opacity="0.3" d="M756.588 662.729H740.989V693.268H756.588V662.729Z" stroke="black" stroke-width="10" stroke-miterlimit="10"/>
<path opacity="0.3" d="M728.499 712.9H712.899V743.439H728.499V712.9Z" stroke="black" stroke-width="10" stroke-miterlimit="10"/>
<path opacity="0.3" d="M756.588 712.9H740.989V743.439H756.588V712.9Z" stroke="black" stroke-width="10" stroke-miterlimit="10"/>
<path opacity="0.3" d="M728.499 763.046H712.899V793.585H728.499V763.046Z" stroke="black" stroke-width="10" stroke-miterlimit="10"/>
<path opacity="0.3" d="M756.588 763.046H740.989V793.585H756.588V763.046Z" stroke="black" stroke-width="10" stroke-miterlimit="10"/>
<path opacity="0.3" d="M728.499 813.217H712.899V843.756H728.499V813.217Z" stroke="black" stroke-width="10" stroke-miterlimit="10"/>
<path opacity="0.3" d="M756.588 813.217H740.989V843.756H756.588V813.217Z" stroke="black" stroke-width="10" stroke-miterlimit="10"/>
<path opacity="0.3" d="M728.499 863.363H712.899V893.902H728.499V863.363Z" stroke="black" stroke-width="10" stroke-miterlimit="10"/>
<path opacity="0.3" d="M756.588 863.363H740.989V893.902H756.588V863.363Z" stroke="black" stroke-width="10" stroke-miterlimit="10"/>
<path opacity="0.3" d="M728.499 913.534H712.899V944.073H728.499V913.534Z" stroke="black" stroke-width="10" stroke-miterlimit="10"/>
<path opacity="0.3" d="M756.588 913.534H740.989V944.073H756.588V913.534Z" stroke="black" stroke-width="10" stroke-miterlimit="10"/>
<path opacity="0.3" d="M573.805 457.732H558.205V488.271H573.805V457.732Z" stroke="black" stroke-width="10" stroke-miterlimit="10"/>
<path opacity="0.3" d="M601.895 457.732H586.295V488.271H601.895V457.732Z" stroke="black" stroke-width="10" stroke-miterlimit="10"/>
<path opacity="0.3" d="M629.984 457.732H614.385V488.271H629.984V457.732Z" stroke="black" stroke-width="10" stroke-miterlimit="10"/>
<path opacity="0.3" d="M658.074 457.732H642.474V488.271H658.074V457.732Z" stroke="black" stroke-width="10" stroke-miterlimit="10"/>
<path opacity="0.3" d="M686.164 457.732H670.564V488.271H686.164V457.732Z" stroke="black" stroke-width="10" stroke-miterlimit="10"/>
<path opacity="0.3" d="M573.805 509.357H558.205V539.896H573.805V509.357Z" stroke="black" stroke-width="10" stroke-miterlimit="10"/>
<path opacity="0.3" d="M601.895 509.357H586.295V539.896H601.895V509.357Z" stroke="black" stroke-width="10" stroke-miterlimit="10"/>
<path opacity="0.3" d="M629.984 509.357H614.385V539.896H629.984V509.357Z" stroke="black" stroke-width="10" stroke-miterlimit="10"/>
<path opacity="0.3" d="M658.074 509.357H642.474V539.896H658.074V509.357Z" stroke="black" stroke-width="10" stroke-miterlimit="10"/>
<path opacity="0.3" d="M686.164 509.357H670.564V539.896H686.164V509.357Z" stroke="black" stroke-width="10" stroke-miterlimit="10"/>
<path opacity="0.3" d="M573.805 560.958H558.205V591.496H573.805V560.958Z" stroke="black" stroke-width="10" stroke-miterlimit="10"/>
<path opacity="0.3" d="M601.895 560.958H586.295V591.496H601.895V560.958Z" stroke="black" stroke-width="10" stroke-miterlimit="10"/>
<path opacity="0.3" d="M629.984 560.958H614.385V591.496H629.984V560.958Z" stroke="black" stroke-width="10" stroke-miterlimit="10"/>
<path opacity="0.3" d="M658.074 560.958H642.474V591.496H658.074V560.958Z" stroke="black" stroke-width="10" stroke-miterlimit="10"/>
<path opacity="0.3" d="M686.164 560.958H670.564V591.496H686.164V560.958Z" stroke="black" stroke-width="10" stroke-miterlimit="10"/>
<path opacity="0.3" d="M573.805 612.583H558.205V643.122H573.805V612.583Z" stroke="black" stroke-width="10" stroke-miterlimit="10"/>
<path opacity="0.3" d="M601.895 612.583H586.295V643.122H601.895V612.583Z" stroke="black" stroke-width="10" stroke-miterlimit="10"/>
<path opacity="0.3" d="M629.984 612.583H614.385V643.122H629.984V612.583Z" stroke="black" stroke-width="10" stroke-miterlimit="10"/>
<path opacity="0.3" d="M658.074 612.583H642.474V643.122H658.074V612.583Z" stroke="black" stroke-width="10" stroke-miterlimit="10"/>
<path opacity="0.3" d="M686.164 612.583H670.564V643.122H686.164V612.583Z" stroke="black" stroke-width="10" stroke-miterlimit="10"/>
<path opacity="0.3" d="M573.805 664.183H558.205V694.722H573.805V664.183Z" stroke="black" stroke-width="10" stroke-miterlimit="10"/>
<path opacity="0.3" d="M601.895 664.183H586.295V694.722H601.895V664.183Z" stroke="black" stroke-width="10" stroke-miterlimit="10"/>
<path opacity="0.3" d="M629.984 664.183H614.385V694.722H629.984V664.183Z" stroke="black" stroke-width="10" stroke-miterlimit="10"/>
<path opacity="0.3" d="M658.074 664.183H642.474V694.722H658.074V664.183Z" stroke="black" stroke-width="10" stroke-miterlimit="10"/>
<path opacity="0.3" d="M686.164 664.183H670.564V694.722H686.164V664.183Z" stroke="black" stroke-width="10" stroke-miterlimit="10"/>
<path opacity="0.3" d="M573.805 715.808H558.205V746.347H573.805V715.808Z" stroke="black" stroke-width="10" stroke-miterlimit="10"/>
<path opacity="0.3" d="M601.895 715.808H586.295V746.347H601.895V715.808Z" stroke="black" stroke-width="10" stroke-miterlimit="10"/>
<path opacity="0.3" d="M629.984 715.808H614.385V746.347H629.984V715.808Z" stroke="black" stroke-width="10" stroke-miterlimit="10"/>
<path opacity="0.3" d="M658.074 715.808H642.474V746.347H658.074V715.808Z" stroke="black" stroke-width="10" stroke-miterlimit="10"/>
<path opacity="0.3" d="M686.164 715.808H670.564V746.347H686.164V715.808Z" stroke="black" stroke-width="10" stroke-miterlimit="10"/>
<path opacity="0.3" d="M573.805 767.408H558.205V797.947H573.805V767.408Z" stroke="black" stroke-width="10" stroke-miterlimit="10"/>
<path opacity="0.3" d="M601.895 767.408H586.295V797.947H601.895V767.408Z" stroke="black" stroke-width="10" stroke-miterlimit="10"/>
<path opacity="0.3" d="M629.984 767.408H614.385V797.947H629.984V767.408Z" stroke="black" stroke-width="10" stroke-miterlimit="10"/>
<path opacity="0.3" d="M658.074 767.408H642.474V797.947H658.074V767.408Z" stroke="black" stroke-width="10" stroke-miterlimit="10"/>
<path opacity="0.3" d="M686.164 767.408H670.564V797.947H686.164V767.408Z" stroke="black" stroke-width="10" stroke-miterlimit="10"/>
<path opacity="0.3" d="M573.805 819.034H558.205V849.573H573.805V819.034Z" stroke="black" stroke-width="10" stroke-miterlimit="10"/>
<path opacity="0.3" d="M601.895 819.034H586.295V849.573H601.895V819.034Z" stroke="black" stroke-width="10" stroke-miterlimit="10"/>
<path opacity="0.3" d="M629.984 819.034H614.385V849.573H629.984V819.034Z" stroke="black" stroke-width="10" stroke-miterlimit="10"/>
<path opacity="0.3" d="M658.074 819.034H642.474V849.573H658.074V819.034Z" stroke="black" stroke-width="10" stroke-miterlimit="10"/>
<path opacity="0.3" d="M686.164 819.034H670.564V849.573H686.164V819.034Z" stroke="black" stroke-width="10" stroke-miterlimit="10"/>
<path opacity="0.3" d="M573.805 870.634H558.205V901.173H573.805V870.634Z" stroke="black" stroke-width="10" stroke-miterlimit="10"/>
<path opacity="0.3" d="M601.895 870.634H586.295V901.173H601.895V870.634Z" stroke="black" stroke-width="10" stroke-miterlimit="10"/>
<path opacity="0.3" d="M629.984 870.634H614.385V901.173H629.984V870.634Z" stroke="black" stroke-width="10" stroke-miterlimit="10"/>
<path opacity="0.3" d="M658.074 870.634H642.474V901.173H658.074V870.634Z" stroke="black" stroke-width="10" stroke-miterlimit="10"/>
<path opacity="0.3" d="M686.164 870.634H670.564V901.173H686.164V870.634Z" stroke="black" stroke-width="10" stroke-miterlimit="10"/>
<path opacity="0.3" d="M573.805 923.713H558.205V954.252H573.805V923.713Z" stroke="black" stroke-width="10" stroke-miterlimit="10"/>
<path opacity="0.3" d="M601.895 923.713H586.295V954.252H601.895V923.713Z" stroke="black" stroke-width="10" stroke-miterlimit="10"/>
<path opacity="0.3" d="M629.984 923.713H614.385V954.252H629.984V923.713Z" stroke="black" stroke-width="10" stroke-miterlimit="10"/>
<path opacity="0.3" d="M658.074 923.713H642.474V954.252H658.074V923.713Z" stroke="black" stroke-width="10" stroke-miterlimit="10"/>
<path opacity="0.3" d="M686.164 923.713H670.564V954.252H686.164V923.713Z" stroke="black" stroke-width="10" stroke-miterlimit="10"/>
<path opacity="0.3" d="M546.443 383.591V1005.85" stroke="black" stroke-width="10" stroke-miterlimit="10"/>
<path opacity="0.3" d="M785.054 412.676V997.127" stroke="black" stroke-width="10" stroke-miterlimit="10"/>
<path opacity="0.3" d="M815.602 412.676V997.127" stroke="black" stroke-width="10" stroke-miterlimit="10"/>
<path opacity="0.3" d="M846.149 412.676V997.127" stroke="black" stroke-width="10" stroke-miterlimit="10"/>
<path opacity="0.3" d="M876.671 412.676V997.127" stroke="black" stroke-width="10" stroke-miterlimit="10"/>
<path opacity="0.3" d="M907.219 470.82V997.127" stroke="black" stroke-width="10" stroke-miterlimit="10"/>
<path opacity="0.3" d="M937.766 470.82V997.127" stroke="black" stroke-width="10" stroke-miterlimit="10"/>
<path opacity="0.3" d="M968.314 470.82V997.127" stroke="black" stroke-width="10" stroke-miterlimit="10"/>
<path opacity="0.3" d="M152.461 273.095H342.969" stroke="black" stroke-width="10" stroke-miterlimit="10"/>
<path opacity="0.3" d="M152.461 310.905H342.969" stroke="black" stroke-width="10" stroke-miterlimit="10"/>
<path opacity="0.3" d="M152.461 348.69H342.969" stroke="black" stroke-width="10" stroke-miterlimit="10"/>
<path opacity="0.3" d="M152.461 386.5H342.969" stroke="black" stroke-width="10" stroke-miterlimit="10"/>
<path opacity="0.3" d="M152.461 424.285H342.969" stroke="black" stroke-width="10" stroke-miterlimit="10"/>
<path opacity="0.3" d="M152.461 462.095H342.969" stroke="black" stroke-width="10" stroke-miterlimit="10"/>
<path opacity="0.3" d="M152.461 499.905H342.969" stroke="black" stroke-width="10" stroke-miterlimit="10"/>
<path opacity="0.3" d="M152.461 537.69H342.969" stroke="black" stroke-width="10" stroke-miterlimit="10"/>
<path opacity="0.3" d="M152.461 575.5H342.969" stroke="black" stroke-width="10" stroke-miterlimit="10"/>
<path opacity="0.3" d="M152.461 613.31H342.969" stroke="black" stroke-width="10" stroke-miterlimit="10"/>
<path opacity="0.3" d="M152.461 651.095H342.969" stroke="black" stroke-width="10" stroke-miterlimit="10"/>
<path opacity="0.3" d="M152.461 688.905H342.969" stroke="black" stroke-width="10" stroke-miterlimit="10"/>
<path opacity="0.3" d="M152.461 726.715H342.969" stroke="black" stroke-width="10" stroke-miterlimit="10"/>
<path opacity="0.3" d="M152.461 764.5H342.969" stroke="black" stroke-width="10" stroke-miterlimit="10"/>
<path opacity="0.3" d="M152.461 802.31H342.969" stroke="black" stroke-width="10" stroke-miterlimit="10"/>
<path opacity="0.3" d="M152.461 840.095H342.969" stroke="black" stroke-width="10" stroke-miterlimit="10"/>
<path opacity="0.3" d="M152.461 877.905H342.969" stroke="black" stroke-width="10" stroke-miterlimit="10"/>
<path opacity="0.3" d="M152.461 915.715H342.969" stroke="black" stroke-width="10" stroke-miterlimit="10"/>
<path opacity="0.3" d="M152.461 953.5H342.969" stroke="black" stroke-width="10" stroke-miterlimit="10"/>
<path opacity="0.3" d="M152.461 991.31H342.969" stroke="black" stroke-width="10" stroke-miterlimit="10"/>
<path opacity="0.3" d="M152.461 1029.12H342.969" stroke="black" stroke-width="10" stroke-miterlimit="10"/>
<path opacity="0.3" d="M177.165 216.405V1037.82" stroke="black" stroke-width="10" stroke-miterlimit="10"/>
<path opacity="0.3" d="M1486.02 377.774H1528.2V398.134H1486.02" stroke="black" stroke-width="10" stroke-miterlimit="10"/>
<path opacity="0.3" d="M1731.8 606.039H1683.82V626.373H1731.8" stroke="black" stroke-width="10" stroke-miterlimit="10"/>
<path opacity="0.3" d="M1731.8 654.003H1683.82V674.363H1731.8" stroke="black" stroke-width="10" stroke-miterlimit="10"/>
<path opacity="0.3" d="M1731.8 701.993H1683.82V722.352H1731.8" stroke="black" stroke-width="10" stroke-miterlimit="10"/>
<path opacity="0.3" d="M1731.8 749.958H1683.82V770.317H1731.8" stroke="black" stroke-width="10" stroke-miterlimit="10"/>
<path opacity="0.3" d="M1731.8 797.947H1683.82V818.307H1731.8" stroke="black" stroke-width="10" stroke-miterlimit="10"/>
<path opacity="0.3" d="M1731.8 845.912H1683.82V866.271H1731.8" stroke="black" stroke-width="10" stroke-miterlimit="10"/>
<path opacity="0.3" d="M1731.8 893.902H1683.82V914.261H1731.8" stroke="black" stroke-width="10" stroke-miterlimit="10"/>
<path opacity="0.3" d="M1731.8 941.866H1683.82V962.225H1731.8" stroke="black" stroke-width="10" stroke-miterlimit="10"/>
<path opacity="0.3" d="M1486.02 433.01H1528.2V453.369H1486.02" stroke="black" stroke-width="10" stroke-miterlimit="10"/>
<path opacity="0.3" d="M1486.02 488.271H1528.2V508.63H1486.02" stroke="black" stroke-width="10" stroke-miterlimit="10"/>
<path opacity="0.3" d="M1486.02 543.507H1528.2V563.866H1486.02" stroke="black" stroke-width="10" stroke-miterlimit="10"/>
<path opacity="0.3" d="M1486.02 598.768H1528.2V619.127H1486.02" stroke="black" stroke-width="10" stroke-miterlimit="10"/>
<path opacity="0.3" d="M1486.02 654.003H1528.2V674.363H1486.02" stroke="black" stroke-width="10" stroke-miterlimit="10"/>
<path opacity="0.3" d="M1486.02 709.264H1528.2V729.624H1486.02" stroke="black" stroke-width="10" stroke-miterlimit="10"/>
<path opacity="0.3" d="M1486.02 764.5H1528.2V784.859H1486.02" stroke="black" stroke-width="10" stroke-miterlimit="10"/>
<path opacity="0.3" d="M1486.02 819.761H1528.2V840.095H1486.02" stroke="black" stroke-width="10" stroke-miterlimit="10"/>
<path opacity="0.3" d="M1486.02 874.997H1528.2V895.356H1486.02" stroke="black" stroke-width="10" stroke-miterlimit="10"/>
<path opacity="0.3" d="M1419.13 510.085H1235.89V527.535H1419.13V510.085Z" stroke="black" stroke-width="10" stroke-miterlimit="10"/>
<path opacity="0.3" d="M1419.13 540.598H1235.89V558.049H1419.13V540.598Z" stroke="black" stroke-width="10" stroke-miterlimit="10"/>
<path opacity="0.3" d="M1419.13 571.137H1235.89V588.588H1419.13V571.137Z" stroke="black" stroke-width="10" stroke-miterlimit="10"/>
<path opacity="0.3" d="M1419.13 601.676H1235.89V619.127H1419.13V601.676Z" stroke="black" stroke-width="10" stroke-miterlimit="10"/>
<path opacity="0.3" d="M1419.13 632.19H1235.89V649.641H1419.13V632.19Z" stroke="black" stroke-width="10" stroke-miterlimit="10"/>
<path opacity="0.3" d="M1419.13 662.729H1235.89V680.18H1419.13V662.729Z" stroke="black" stroke-width="10" stroke-miterlimit="10"/>
<path opacity="0.3" d="M1419.13 693.268H1235.89V710.718H1419.13V693.268Z" stroke="black" stroke-width="10" stroke-miterlimit="10"/>
<path opacity="0.3" d="M1419.13 723.807H1235.89V741.257H1419.13V723.807Z" stroke="black" stroke-width="10" stroke-miterlimit="10"/>
<path opacity="0.3" d="M1419.13 754.32H1235.89V771.771H1419.13V754.32Z" stroke="black" stroke-width="10" stroke-miterlimit="10"/>
<path opacity="0.3" d="M1419.13 784.859H1235.89V802.31H1419.13V784.859Z" stroke="black" stroke-width="10" stroke-miterlimit="10"/>
<path opacity="0.3" d="M1419.13 815.398H1235.89V832.849H1419.13V815.398Z" stroke="black" stroke-width="10" stroke-miterlimit="10"/>
<path opacity="0.3" d="M1419.13 845.912H1235.89V863.363H1419.13V845.912Z" stroke="black" stroke-width="10" stroke-miterlimit="10"/>
<path opacity="0.3" d="M1419.13 876.451H1235.89V893.902H1419.13V876.451Z" stroke="black" stroke-width="10" stroke-miterlimit="10"/>
<path opacity="0.3" d="M1419.13 906.99H1235.89V924.44H1419.13V906.99Z" stroke="black" stroke-width="10" stroke-miterlimit="10"/>
<path opacity="0.3" d="M1419.13 937.503H1235.89V954.954H1419.13V937.503Z" stroke="black" stroke-width="10" stroke-miterlimit="10"/>
<path opacity="0.3" d="M1419.13 968.042H1235.89V985.493H1419.13V968.042Z" stroke="black" stroke-width="10" stroke-miterlimit="10"/>
<path opacity="0.3" d="M1419.13 998.581H1235.89V1016.03H1419.13V998.581Z" stroke="black" stroke-width="10" stroke-miterlimit="10"/>
<path opacity="0.3" d="M1554.38 329.785V1004.4" stroke="black" stroke-width="10" stroke-miterlimit="10"/>
<path opacity="0.3" d="M1592.18 201.863V1004.4" stroke="black" stroke-width="10" stroke-miterlimit="10"/>
<path opacity="0.3" d="M1157.37 850.275H1065.75V898.264H1157.37V850.275Z" stroke="black" stroke-width="10" stroke-miterlimit="10"/>
<path opacity="0.3" d="M1135.55 765.954H1087.54V850.275H1135.55V765.954Z" stroke="black" stroke-width="10" stroke-miterlimit="10"/>
<path opacity="0.3" d="M701.688 588.162V1004.7" stroke="black" stroke-width="10" stroke-miterlimit="10"/>
<path opacity="0.3" d="M1227.94 542.504H1005.46" stroke="black" stroke-width="10" stroke-miterlimit="10"/>
<path opacity="0.3" d="M1227.94 567.351H1005.46" stroke="black" stroke-width="10" stroke-miterlimit="10"/>
<path opacity="0.3" d="M1049.32 585.98H1015.39V610.828H1049.32V585.98Z" stroke="black" stroke-width="10" stroke-miterlimit="10"/>
<path opacity="0.3" d="M1091.18 585.98H1057.25V610.828H1091.18V585.98Z" stroke="black" stroke-width="10" stroke-miterlimit="10"/>
<path opacity="0.3" d="M1133.04 585.98H1099.11V610.828H1133.04V585.98Z" stroke="black" stroke-width="10" stroke-miterlimit="10"/>
<path opacity="0.3" d="M1174.9 585.98H1140.96V610.828H1174.9V585.98Z" stroke="black" stroke-width="10" stroke-miterlimit="10"/>
<path opacity="0.3" d="M1216.76 585.98H1182.82V610.828H1216.76V585.98Z" stroke="black" stroke-width="10" stroke-miterlimit="10"/>
<path opacity="0.3" d="M1049.32 624.492H1015.39V649.34H1049.32V624.492Z" stroke="black" stroke-width="10" stroke-miterlimit="10"/>
<path opacity="0.3" d="M1091.18 624.492H1057.25V649.34H1091.18V624.492Z" stroke="black" stroke-width="10" stroke-miterlimit="10"/>
<path opacity="0.3" d="M1133.04 624.492H1099.11V649.34H1133.04V624.492Z" stroke="black" stroke-width="10" stroke-miterlimit="10"/>
<path opacity="0.3" d="M1174.9 624.492H1140.96V649.34H1174.9V624.492Z" stroke="black" stroke-width="10" stroke-miterlimit="10"/>
<path opacity="0.3" d="M1216.76 624.492H1182.82V649.34H1216.76V624.492Z" stroke="black" stroke-width="10" stroke-miterlimit="10"/>
<path opacity="0.3" d="M1049.32 663.03H1015.39V687.877H1049.32V663.03Z" stroke="black" stroke-width="10" stroke-miterlimit="10"/>
<path opacity="0.3" d="M1091.18 663.03H1057.25V687.877H1091.18V663.03Z" stroke="black" stroke-width="10" stroke-miterlimit="10"/>
<path opacity="0.3" d="M1133.04 663.03H1099.11V687.877H1133.04V663.03Z" stroke="black" stroke-width="10" stroke-miterlimit="10"/>
<path opacity="0.3" d="M1174.9 663.03H1140.96V687.877H1174.9V663.03Z" stroke="black" stroke-width="10" stroke-miterlimit="10"/>
<path opacity="0.3" d="M1216.76 663.03H1182.82V687.877H1216.76V663.03Z" stroke="black" stroke-width="10" stroke-miterlimit="10"/>
<path opacity="0.3" d="M1049.32 732.607H1015.39V757.454H1049.32V732.607Z" stroke="black" stroke-width="10" stroke-miterlimit="10"/>
<path opacity="0.3" d="M1091.18 732.607H1057.25V757.454H1091.18V732.607Z" stroke="black" stroke-width="10" stroke-miterlimit="10"/>
<path opacity="0.3" d="M1133.04 732.607H1099.11V757.454H1133.04V732.607Z" stroke="black" stroke-width="10" stroke-miterlimit="10"/>
<path opacity="0.3" d="M1174.9 732.607H1140.96V757.454H1174.9V732.607Z" stroke="black" stroke-width="10" stroke-miterlimit="10"/>
<path opacity="0.3" d="M1216.76 732.607H1182.82V757.454H1216.76V732.607Z" stroke="black" stroke-width="10" stroke-miterlimit="10"/>
</g>
<path d="M37.3943 1049.38H1851.38" stroke="black" stroke-width="5" stroke-miterlimit="10"/>
<path d="M384.005 1049.06C428.399 1045.06 461.143 1005.84 457.142 961.462C453.141 917.081 413.91 884.346 369.516 888.346C325.123 892.346 292.378 931.566 296.379 975.947C300.38 1020.33 339.612 1053.06 384.005 1049.06Z" fill="#263238"/>
<path d="M1594.46 1049.38C1639.03 1049.38 1675.17 1013.26 1675.17 968.694C1675.17 924.133 1639.03 888.009 1594.46 888.009C1549.89 888.009 1513.75 924.133 1513.75 968.694C1513.75 1013.26 1549.89 1049.38 1594.46 1049.38Z" fill="#263238"/>
<path d="M201.744 978.849L1566.32 988.276L1748.08 985.368L1758.11 945.251C1758.11 945.251 1766.41 912.105 1746.5 887.232C1726.58 862.36 1688.46 839.167 1656.96 845.786C1625.46 852.406 260.807 845.786 260.807 845.786C260.807 845.786 186.194 864.015 173.027 918.724C159.86 973.433 201.744 978.849 201.744 978.849Z" fill="#263238"/>
<path d="M293.887 1049.38C338.461 1049.38 374.595 1013.26 374.595 968.694C374.595 924.133 338.461 888.009 293.887 888.009C249.314 888.009 213.18 924.133 213.18 968.694C213.18 1013.26 249.314 1049.38 293.887 1049.38Z" fill="#263238"/>
<path d="M293.887 912.656C282.786 912.656 271.934 915.947 262.704 922.113C253.473 928.279 246.279 937.042 242.031 947.296C237.783 957.549 236.671 968.832 238.837 979.717C241.003 990.601 246.348 1000.6 254.198 1008.45C262.048 1016.3 272.049 1021.64 282.937 1023.8C293.825 1025.97 305.111 1024.86 315.367 1020.61C325.623 1016.36 334.389 1009.17 340.557 999.944C346.725 990.716 350.016 979.868 350.016 968.769C350.016 953.887 344.103 939.615 333.577 929.091C323.05 918.568 308.774 912.656 293.887 912.656V912.656ZM339.458 952.648L317.237 957.06C316.53 955.591 315.691 954.189 314.729 952.873L328.423 934.77C333.35 939.833 337.115 945.908 339.458 952.572V952.648ZM317.237 926.396L303.468 944.424C302.576 944.067 301.663 943.765 300.734 943.521V920.955C306.515 921.729 312.107 923.547 317.237 926.321V926.396ZM286.94 920.93V943.496C285.423 943.916 283.946 944.47 282.526 945.151L267.478 928.076C273.365 924.286 280.006 921.822 286.94 920.855V920.93ZM257.145 937.328L272.193 954.378C271.007 956.184 270.047 958.129 269.334 960.169L246.762 958.665C248.391 950.777 251.96 943.418 257.145 937.253V937.328ZM253.308 994.996C248.941 988.227 246.353 980.465 245.784 972.43L268.356 973.934C268.788 976.054 269.487 978.109 270.438 980.052L253.308 994.996ZM262.437 1005.43L279.491 990.533C280.043 990.884 280.62 991.235 281.222 991.561L275.88 1013.57C270.982 1011.62 266.44 1008.86 262.437 1005.43V1005.43ZM293.887 1017.08C292.357 1017.08 290.853 1017.08 289.373 1016.86L294.715 994.795C296.036 994.763 297.352 994.629 298.653 994.394L308.685 1014.8C303.899 1016.32 298.907 1017.08 293.887 1017.06V1017.08ZM321.024 1008.71L310.992 988.301C311.794 987.6 312.548 986.846 313.249 986.045L333.614 996.074C330.239 1001.03 325.969 1005.32 321.024 1008.71V1008.71ZM319.519 973.608C319.708 972.606 319.833 971.593 319.895 970.575L342.116 966.137C342.116 966.989 342.242 967.817 342.242 968.644C342.248 973.753 341.444 978.831 339.859 983.688L319.519 973.608Z" fill="white" stroke="#263238" stroke-linecap="round" stroke-linejoin="round"/>
<path d="M1663.36 1049.38C1707.93 1049.38 1744.06 1013.26 1744.06 968.694C1744.06 924.133 1707.93 888.009 1663.36 888.009C1618.78 888.009 1582.65 924.133 1582.65 968.694C1582.65 1013.26 1618.78 1049.38 1663.36 1049.38Z" fill="#263238" stroke="#263238" stroke-linecap="round" stroke-linejoin="round"/>
<path d="M1663.36 912.656C1652.25 912.651 1641.4 915.938 1632.17 922.101C1622.93 928.264 1615.73 937.026 1611.48 947.278C1607.23 957.531 1606.11 968.815 1608.28 979.701C1610.44 990.588 1615.78 1000.59 1623.63 1008.44C1631.48 1016.29 1641.48 1021.64 1652.37 1023.8C1663.26 1025.97 1674.55 1024.86 1684.8 1020.61C1695.06 1016.37 1703.83 1009.18 1710 999.947C1716.17 990.719 1719.46 979.869 1719.46 968.769C1719.46 953.892 1713.55 939.623 1703.03 929.1C1692.51 918.578 1678.24 912.663 1663.36 912.656V912.656ZM1708.93 952.648L1686.71 957.06C1686 955.591 1685.16 954.19 1684.2 952.873L1697.89 934.77C1702.82 939.833 1706.58 945.908 1708.93 952.572V952.648ZM1686.71 926.396L1673.01 944.499C1672.12 944.145 1671.21 943.844 1670.28 943.596V921.03C1676.03 921.793 1681.59 923.585 1686.71 926.321V926.396ZM1656.41 920.93V943.496C1654.88 943.92 1653.4 944.474 1651.97 945.151L1637.05 928.076C1642.91 924.307 1649.51 921.844 1656.41 920.855V920.93ZM1626.61 937.328L1641.54 954.378C1640.35 956.184 1639.39 958.129 1638.68 960.169L1616.1 958.665C1617.75 950.757 1621.36 943.392 1626.61 937.253V937.328ZM1622.75 994.996C1618.39 988.222 1615.81 980.463 1615.23 972.43L1637.8 973.934C1638.25 976.051 1638.96 978.106 1639.91 980.052L1622.75 994.996ZM1631.91 1005.43L1648.96 990.533C1649.51 990.884 1650.09 991.235 1650.69 991.561L1645.25 1013.57C1640.38 1011.61 1635.88 1008.85 1631.91 1005.43V1005.43ZM1663.36 1017.08C1661.83 1017.08 1660.32 1017.08 1658.84 1016.86L1664.18 994.795C1665.5 994.763 1666.82 994.629 1668.12 994.394L1678.15 1014.8C1673.37 1016.32 1668.38 1017.08 1663.36 1017.06V1017.08ZM1690.52 1008.74L1680.49 988.326C1681.29 987.625 1682.04 986.871 1682.74 986.07L1703.11 996.099C1699.73 1001.05 1695.46 1005.32 1690.52 1008.71V1008.74ZM1689.01 973.634C1689.19 972.629 1689.31 971.617 1689.39 970.6L1711.61 966.162C1711.61 967.014 1711.61 967.842 1711.61 968.669C1711.58 973.785 1710.73 978.863 1709.1 983.713L1689.01 973.634Z" fill="white" stroke="#263238" stroke-linecap="round" stroke-linejoin="round"/>
<path d="M1847.72 907.642C1840.19 903.103 1825.85 895.556 1825.85 895.556C1825.85 895.556 1815.26 871.436 1806.24 863.137C1798.85 856.736 1790.12 852.09 1780.68 849.547C1776.92 848.795 1518.19 816.376 1518.19 816.376C1518.19 816.376 1388.45 745.47 1374.13 738.65C1359.81 731.83 1331.12 723.606 1318.96 724.308C1306.79 725.01 867.893 716.034 867.893 716.034L478.677 715.257C478.677 715.257 406.271 719.043 363.309 732.607C320.347 746.172 298.452 756.05 282.576 769.74C266.701 783.43 247.866 801.407 247.866 801.407L86.4507 817.88C86.4507 817.88 61.5713 823.898 56.3547 841.248C51.138 858.599 45.7208 885.076 45.7208 885.076C45.7208 885.076 31.4001 889.614 29.8953 899.418C28.3905 909.221 34.4097 952.196 38.1717 955.205C41.9337 958.214 88.7079 963.504 88.7079 963.504C95.8689 969.265 104.492 972.919 113.612 974.06C125.927 975.815 178.82 978.047 201.743 978.949C201.743 976.893 201.568 974.862 201.568 972.781C201.568 918.624 242.498 874.721 292.809 874.721C343.119 874.721 383.874 918.573 383.724 972.831C383.724 975.339 383.598 977.846 383.398 980.479L1566.25 988.377C1565.91 983.182 1565.95 977.97 1566.37 972.781C1570.84 918.624 1615.23 874.721 1665.56 874.721C1715.9 874.721 1753.09 918.573 1748.68 972.831C1748.33 977.041 1747.73 981.227 1746.9 985.368H1748.15C1748.15 985.368 1824.32 977.094 1831.12 976.316C1837.91 975.539 1849.22 955.957 1851.48 942.393C1853.74 928.828 1855.24 912.13 1847.72 907.642Z" fill="#FF7900" stroke="#263238" stroke-linecap="round" stroke-linejoin="round"/>
<path d="M1806.24 863.112H1768.99C1768.42 863.112 1767.84 863.226 1767.31 863.449C1766.78 863.671 1766.3 863.997 1765.89 864.408C1765.48 864.818 1765.16 865.305 1764.95 865.84C1764.73 866.375 1764.62 866.948 1764.63 867.525V890.818C1764.63 891.389 1764.74 891.955 1764.96 892.483C1765.18 893.011 1765.5 893.491 1765.91 893.894C1766.31 894.297 1766.8 894.616 1767.32 894.832C1767.85 895.049 1768.42 895.159 1768.99 895.155H1825.82C1825.82 895.155 1814.06 871.637 1806.24 863.112Z" fill="white" stroke="#263238" stroke-linecap="round" stroke-linejoin="round"/>
<path d="M1765.98 886.104H1800.19V894.654H1771.05C1766.48 894.654 1765.28 890.592 1766.03 886.104H1765.98Z" fill="#BDBDBD" stroke="#263238" stroke-linecap="round" stroke-linejoin="round"/>
<path d="M1847.72 907.617H1733.55" stroke="#263238" stroke-linecap="round" stroke-linejoin="round"/>
<path d="M33.9583 895.055H230.184" stroke="#263238" stroke-linecap="round" stroke-linejoin="round"/>
<path d="M216.842 894.478C216.842 894.478 252.255 854.361 314.378 861.407C376.501 868.453 399.65 931.06 399.65 973.985" stroke="#263238" stroke-linecap="round" stroke-linejoin="round"/>
<path d="M1575.88 911.327C1575.88 911.327 1612.47 860.254 1669.93 865.469C1727.38 870.684 1742.51 908.995 1742.51 908.995" stroke="#263238" stroke-linecap="round" stroke-linejoin="round"/>
<path d="M1590.07 913.057H385.204C385.204 913.057 400.252 939.986 398.797 980.479L1566.32 988.276C1565.99 983.082 1566.03 977.87 1566.45 972.681C1568.26 950.911 1576.48 930.164 1590.07 913.057Z" fill="#BDBDBD" stroke="#263238" stroke-linecap="round" stroke-linejoin="round"/>
<path d="M1230.47 726.765C1230.47 726.765 1269.95 822.519 1275.74 910.726" stroke="#263238" stroke-linecap="round" stroke-linejoin="round"/>
<path d="M1518.09 816.376H1492.26C1492.26 816.376 1418.52 769.113 1396.96 756.928C1375.39 744.742 1333.1 728.495 1317.43 727.918L1318.83 724.358" stroke="#263238" stroke-linecap="round" stroke-linejoin="round"/>
<path d="M1502.74 826.581C1502.74 826.581 1529.45 854.437 1529.45 885.778C1529.45 917.119 1527.7 959.492 1519.57 981.532" stroke="#263238" stroke-linecap="round" stroke-linejoin="round"/>
<path d="M563.422 719.218L563.999 726.163C563.999 726.163 575.611 874.746 578.52 892.748C581.43 910.751 577.342 975.163 577.342 975.163" stroke="#263238" stroke-linecap="round" stroke-linejoin="round"/>
<path d="M1381.91 759.836C1371.45 752.866 1341.28 743.012 1324.42 740.681C1307.57 738.349 1280.31 734.889 1271.61 734.889H1235.69L1226.99 735.465L547.17 728.495C547.17 728.495 469.949 729.072 457.183 730.827C444.418 732.582 393.906 741.257 379.435 753.393C364.964 765.528 360.274 806.221 360.274 806.221L1261.27 817.83H1476.66C1476.66 817.83 1392.44 766.807 1381.91 759.836Z" fill="#263238" stroke="#263238" stroke-linecap="round" stroke-linejoin="round"/>
<path d="M1205.34 817.153L1261.22 817.88H1476.61C1476.61 817.88 1392.44 766.807 1381.91 759.836C1371.37 752.866 1341.28 743.012 1324.42 740.681C1307.57 738.349 1280.31 734.889 1271.61 734.889H1235.69L1226.99 735.465L1182.67 735.014L1205.34 817.153Z" fill="white" stroke="#263238" stroke-linecap="round" stroke-linejoin="round"/>
<path d="M1381.91 759.836C1371.45 752.866 1341.28 743.012 1324.42 740.681C1307.57 738.349 1280.31 734.889 1271.61 734.889H1240.51L1248.36 762.795C1248.36 762.795 1286.8 760.614 1303.53 768.587C1320.26 776.56 1355.77 804.115 1355.77 804.115C1353.44 806.866 1351.73 810.091 1350.76 813.568C1350.61 815.055 1350.9 816.553 1351.59 817.88H1476.66C1476.66 817.88 1392.44 766.807 1381.91 759.836ZM1331.05 762.795C1339.83 760.639 1348.89 759.903 1357.91 760.614C1370.95 762.068 1450.7 807.751 1460.18 815.774L1397.81 814.32L1331.05 762.795Z" fill="#263238" stroke="#263238" stroke-linecap="round" stroke-linejoin="round"/>
<path d="M1245.27 734.889H1235.69L1226.99 735.465L1174.02 734.914C1179.39 748.754 1192.5 801.558 1196.32 817.028L1261.22 817.88H1277.83C1267.57 789.799 1251.49 750.183 1245.27 734.889Z" fill="#4C4C4C" stroke="#263238" stroke-linecap="round" stroke-linejoin="round"/>
<path d="M401.957 742.937C392.352 746.021 384.025 749.557 379.385 753.443C364.864 765.628 360.224 806.272 360.224 806.272L392.201 806.673L401.957 742.937Z" fill="#4C4C4C" stroke="#263238" stroke-linecap="round" stroke-linejoin="round"/>
<path d="M932.474 732.432L855.955 731.654C861.473 751.186 871.003 794.562 875.091 812.891L954.118 813.919C948.827 787.291 936.763 746.648 932.474 732.432Z" fill="#4C4C4C" stroke="#263238" stroke-linecap="round" stroke-linejoin="round"/>
<path d="M620.63 729.247L547.898 728.495L548.399 808.729L632.367 809.832C629.684 785.185 623.037 743.915 620.63 729.247Z" fill="#4C4C4C" stroke="#263238" stroke-linecap="round" stroke-linejoin="round"/>
<path d="M1336.69 849.222H1293.15V854.437H1336.69V849.222Z" fill="#263238"/>
<path d="M399.7 834.704H356.161V839.919H399.7V834.704Z" fill="#263238"/>
<path d="M330.053 859.652C328.693 857.739 327.735 855.572 327.235 853.28C326.735 850.987 326.704 848.618 327.144 846.313C328.297 837.613 340.486 766.807 349.716 755.198C358.551 743.549 370.676 734.815 384.527 730.125" stroke="#263238" stroke-linecap="round" stroke-linejoin="round"/>
<path d="M86.4506 817.88C86.4506 817.88 61.5713 823.898 56.3546 841.248C51.138 858.599 45.7207 885.076 45.7207 885.076H65.2079C65.2079 885.076 70.9261 844.433 86.4757 817.956L86.4506 817.88Z" fill="white" stroke="#263238" stroke-linecap="round" stroke-linejoin="round"/>
<path d="M576.614 786.213C575.835 786.216 575.083 785.927 574.507 785.402C573.931 784.877 573.573 784.156 573.504 783.38L569.868 744.943C569.83 744.534 569.873 744.122 569.995 743.731C570.118 743.339 570.316 742.975 570.58 742.661C570.843 742.346 571.166 742.086 571.53 741.897C571.895 741.708 572.293 741.593 572.702 741.558C573.109 741.517 573.521 741.557 573.913 741.676C574.304 741.795 574.668 741.991 574.983 742.253C575.299 742.514 575.559 742.836 575.748 743.199C575.938 743.561 576.053 743.958 576.088 744.366L579.724 782.803C579.762 783.21 579.72 783.62 579.599 784.01C579.478 784.4 579.282 784.763 579.021 785.077C578.76 785.392 578.44 785.652 578.079 785.842C577.717 786.033 577.322 786.15 576.915 786.188L576.614 786.213Z" fill="white"/>
<path d="M586.044 786.213C585.265 786.216 584.513 785.927 583.937 785.402C583.361 784.877 583.003 784.156 582.934 783.38L579.348 744.943C579.271 744.122 579.524 743.304 580.051 742.669C580.578 742.034 581.335 741.635 582.157 741.558C582.978 741.482 583.797 741.735 584.431 742.261C585.066 742.788 585.466 743.545 585.543 744.366L589.179 782.803C589.217 783.21 589.175 783.62 589.054 784.01C588.933 784.4 588.737 784.763 588.476 785.078C588.215 785.392 587.895 785.652 587.534 785.842C587.172 786.033 586.777 786.15 586.37 786.188L586.044 786.213Z" fill="white"/>
<path d="M595.474 786.213C594.695 786.216 593.943 785.927 593.367 785.402C592.791 784.877 592.434 784.156 592.364 783.38L588.753 744.943C588.676 744.122 588.929 743.304 589.456 742.669C589.983 742.034 590.74 741.635 591.562 741.558C592.383 741.482 593.202 741.735 593.837 742.261C594.472 742.788 594.871 743.545 594.948 744.366L598.584 782.803C598.622 783.21 598.58 783.62 598.459 784.01C598.339 784.4 598.142 784.763 597.881 785.078C597.62 785.392 597.3 785.652 596.939 785.842C596.577 786.033 596.182 786.15 595.775 786.188L595.474 786.213Z" fill="white"/>
<path d="M604.904 786.213C604.125 786.216 603.373 785.927 602.797 785.402C602.221 784.877 601.863 784.156 601.794 783.38L598.183 744.943C598.106 744.122 598.359 743.304 598.886 742.669C599.413 742.034 600.17 741.635 600.992 741.558C601.813 741.482 602.632 741.735 603.266 742.261C603.901 742.788 604.301 743.545 604.378 744.366L608.014 782.803C608.052 783.21 608.01 783.62 607.889 784.01C607.768 784.4 607.572 784.763 607.311 785.078C607.05 785.392 606.73 785.652 606.369 785.842C606.007 786.033 605.612 786.15 605.205 786.188L604.904 786.213Z" fill="white"/>
<path d="M614.46 786.213C613.683 786.211 612.934 785.919 612.359 785.396C611.784 784.872 611.425 784.154 611.35 783.38L607.739 744.943C607.662 744.122 607.915 743.304 608.442 742.669C608.969 742.034 609.726 741.635 610.548 741.558C611.369 741.482 612.187 741.735 612.822 742.261C613.457 742.788 613.857 743.545 613.933 744.366L617.57 782.803C617.608 783.21 617.565 783.62 617.445 784.01C617.324 784.401 617.128 784.763 616.867 785.078C616.606 785.392 616.286 785.652 615.925 785.842C615.563 786.033 615.168 786.15 614.761 786.188L614.46 786.213Z" fill="white"/>
<path d="M890.892 790.576C890.097 790.559 889.333 790.268 888.73 789.751C888.126 789.235 887.72 788.525 887.581 787.743L881.236 749.306C881.157 748.915 881.16 748.512 881.246 748.123C881.332 747.734 881.499 747.367 881.735 747.046C881.971 746.725 882.272 746.456 882.618 746.258C882.964 746.06 883.347 745.937 883.744 745.896C884.587 745.833 885.423 746.086 886.091 746.605C886.758 747.124 887.209 747.872 887.355 748.704L893.701 787.141C893.776 787.531 893.769 787.933 893.682 788.32C893.594 788.708 893.428 789.074 893.192 789.394C892.957 789.714 892.657 789.982 892.313 790.181C891.969 790.38 891.588 790.506 891.193 790.551L890.892 790.576Z" fill="white"/>
<path d="M900.372 790.576C899.578 790.559 898.814 790.268 898.21 789.751C897.606 789.235 897.2 788.525 897.061 787.743L890.716 749.306C890.637 748.915 890.641 748.512 890.727 748.123C890.813 747.734 890.979 747.367 891.215 747.046C891.451 746.725 891.752 746.456 892.098 746.258C892.444 746.06 892.828 745.937 893.224 745.896C894.067 745.833 894.903 746.086 895.571 746.605C896.238 747.124 896.689 747.872 896.836 748.704L903.181 787.141C903.256 787.531 903.25 787.933 903.162 788.32C903.075 788.708 902.908 789.074 902.672 789.394C902.437 789.714 902.138 789.982 901.794 790.181C901.45 790.38 901.068 790.506 900.673 790.551L900.372 790.576Z" fill="white"/>
<path d="M909.752 790.576C908.958 790.559 908.194 790.268 907.59 789.751C906.986 789.235 906.581 788.525 906.442 787.743L900.096 749.306C900.017 748.915 900.021 748.512 900.107 748.123C900.193 747.734 900.359 747.367 900.595 747.046C900.831 746.725 901.132 746.456 901.478 746.258C901.824 746.06 902.208 745.937 902.604 745.896C903.447 745.833 904.284 746.086 904.951 746.605C905.618 747.124 906.069 747.872 906.216 748.704L912.561 787.141C912.64 787.532 912.637 787.934 912.551 788.324C912.465 788.713 912.298 789.08 912.062 789.401C911.826 789.722 911.525 789.99 911.179 790.188C910.833 790.386 910.45 790.51 910.053 790.551L909.752 790.576Z" fill="white"/>
<path d="M919.182 790.576C918.388 790.559 917.624 790.268 917.02 789.751C916.416 789.235 916.01 788.525 915.871 787.743L909.526 749.306C909.447 748.915 909.451 748.512 909.537 748.123C909.623 747.734 909.789 747.367 910.025 747.046C910.261 746.725 910.562 746.456 910.908 746.258C911.254 746.06 911.638 745.937 912.034 745.896C912.877 745.833 913.714 746.086 914.381 746.605C915.048 747.124 915.499 747.872 915.646 748.704L921.991 787.141C922.07 787.532 922.066 787.934 921.98 788.324C921.895 788.713 921.728 789.08 921.492 789.401C921.256 789.722 920.955 789.99 920.609 790.188C920.263 790.386 919.879 790.51 919.483 790.551L919.182 790.576Z" fill="white"/>
<path d="M928.612 790.576C927.818 790.559 927.054 790.268 926.45 789.751C925.846 789.235 925.441 788.525 925.301 787.743L918.956 749.306C918.881 748.916 918.888 748.514 918.975 748.126C919.063 747.739 919.229 747.373 919.465 747.053C919.7 746.733 919.999 746.465 920.344 746.265C920.688 746.066 921.069 745.941 921.464 745.896C922.307 745.833 923.144 746.086 923.811 746.605C924.478 747.124 924.929 747.872 925.076 748.704L931.421 787.141C931.5 787.532 931.497 787.934 931.411 788.324C931.325 788.713 931.158 789.08 930.922 789.401C930.686 789.722 930.385 789.99 930.039 790.188C929.693 790.386 929.31 790.51 928.913 790.551L928.612 790.576Z" fill="white"/>
<path d="M1204.27 793.459C1203.44 793.423 1202.64 793.131 1201.99 792.624C1201.33 792.117 1200.85 791.419 1200.6 790.626L1189.29 752.189C1189.16 751.825 1189.11 751.433 1189.15 751.046C1189.19 750.658 1189.32 750.286 1189.53 749.957C1189.73 749.629 1190.02 749.354 1190.35 749.153C1190.69 748.953 1191.06 748.834 1191.45 748.804C1192.32 748.772 1193.19 749.03 1193.9 749.538C1194.61 750.046 1195.13 750.775 1195.39 751.612L1206.7 790.049C1206.84 790.413 1206.9 790.805 1206.86 791.194C1206.82 791.583 1206.7 791.958 1206.49 792.289C1206.28 792.62 1206 792.899 1205.67 793.102C1205.33 793.305 1204.96 793.427 1204.57 793.459H1204.27Z" fill="white"/>
<path d="M1213.7 793.459C1212.87 793.423 1212.07 793.131 1211.42 792.624C1210.76 792.117 1210.28 791.419 1210.03 790.626L1198.82 752.189C1198.69 751.825 1198.64 751.433 1198.68 751.046C1198.72 750.658 1198.85 750.286 1199.06 749.957C1199.26 749.629 1199.55 749.354 1199.88 749.153C1200.22 748.953 1200.59 748.834 1200.98 748.804C1201.86 748.768 1202.72 749.024 1203.43 749.533C1204.14 750.041 1204.67 750.773 1204.92 751.612L1216.23 790.049C1216.37 790.413 1216.43 790.805 1216.39 791.194C1216.35 791.583 1216.23 791.958 1216.02 792.289C1215.81 792.62 1215.53 792.899 1215.2 793.102C1214.86 793.305 1214.49 793.427 1214.1 793.459H1213.7Z" fill="white"/>
<path d="M1223.13 793.459C1222.3 793.423 1221.5 793.131 1220.85 792.624C1220.19 792.117 1219.71 791.419 1219.46 790.626L1208.18 752.189C1208.04 751.827 1207.99 751.437 1208.03 751.052C1208.07 750.666 1208.2 750.294 1208.4 749.966C1208.61 749.638 1208.89 749.363 1209.22 749.161C1209.55 748.96 1209.92 748.837 1210.31 748.804C1211.19 748.768 1212.05 749.024 1212.76 749.533C1213.47 750.041 1214 750.773 1214.25 751.612L1225.56 790.049C1225.7 790.413 1225.76 790.805 1225.72 791.194C1225.68 791.583 1225.56 791.958 1225.35 792.289C1225.14 792.62 1224.86 792.899 1224.53 793.102C1224.19 793.305 1223.82 793.427 1223.43 793.459H1223.13Z" fill="white"/>
<path d="M1232.56 793.459C1231.73 793.423 1230.93 793.131 1230.28 792.624C1229.62 792.117 1229.14 791.419 1228.89 790.626L1217.61 752.189C1217.47 751.827 1217.42 751.437 1217.46 751.052C1217.5 750.666 1217.63 750.295 1217.83 749.967C1218.04 749.639 1218.32 749.363 1218.65 749.161C1218.98 748.96 1219.35 748.837 1219.74 748.804C1220.62 748.771 1221.48 749.028 1222.2 749.536C1222.92 750.043 1223.44 750.773 1223.7 751.612L1234.99 790.049C1235.13 790.413 1235.19 790.805 1235.15 791.194C1235.11 791.583 1234.99 791.958 1234.78 792.289C1234.57 792.62 1234.29 792.899 1233.96 793.102C1233.62 793.305 1233.25 793.427 1232.86 793.459H1232.56Z" fill="white"/>
<path d="M1242.01 793.459C1241.18 793.428 1240.38 793.139 1239.72 792.631C1239.06 792.123 1238.57 791.422 1238.33 790.626L1227.04 752.189C1226.9 751.827 1226.85 751.437 1226.89 751.052C1226.93 750.666 1227.06 750.295 1227.26 749.967C1227.47 749.639 1227.75 749.363 1228.08 749.161C1228.41 748.96 1228.78 748.837 1229.17 748.804C1230.05 748.771 1230.91 749.028 1231.63 749.536C1232.35 750.043 1232.87 750.773 1233.13 751.612L1244.42 790.049C1244.56 790.413 1244.62 790.805 1244.58 791.194C1244.54 791.583 1244.42 791.958 1244.21 792.289C1244 792.62 1243.72 792.899 1243.39 793.102C1243.05 793.305 1242.68 793.427 1242.29 793.459H1242.01Z" fill="white"/>
<path d="M1433.42 789.623C1433.42 789.623 1430.51 808.478 1434.15 813.568C1437.79 818.658 1447.22 828.787 1457.37 829.514C1467.53 830.241 1470.41 823.697 1468.99 820.087C1467.56 816.476 1466.08 801.959 1458.83 796.142C1451.58 790.325 1439.97 788.896 1433.42 789.623Z" fill="white" stroke="#263238" stroke-linecap="round" stroke-linejoin="round"/>
<path d="M431.376 843.254L441.258 1102.83C439.406 1104.05 437.877 1105.7 436.803 1107.64C435.728 1109.58 435.14 1111.75 435.088 1113.97C435.088 1121.49 436.944 1136.83 436.944 1136.83C435.737 1138.94 434.889 1141.24 434.436 1143.63C433.809 1147.34 435.665 1159.7 435.665 1159.7C435.665 1159.7 449.283 1153.51 456.08 1155.36C462.877 1157.22 485.072 1168.4 485.072 1168.4C485.072 1168.4 493.725 1151.73 494.352 1143.68C494.979 1135.63 489.336 1122.04 489.336 1117.1C489.336 1112.16 505.412 875.448 505.412 875.448L525.802 1107.82L522.09 1123.9C522.09 1123.9 519.006 1136.26 520.234 1139.97C521.463 1143.68 523.946 1164.09 523.946 1164.09C523.946 1164.09 535.082 1170.26 546.217 1167.77C557.353 1165.29 583.311 1157.27 583.311 1157.27C582.976 1151.1 582.976 1144.91 583.311 1138.74C583.913 1132.55 573.279 1112.16 574.031 1105.97C574.784 1099.78 578.37 838.365 578.37 838.365H429.445L431.376 843.254Z" fill="black" stroke="black" stroke-linecap="round" stroke-linejoin="round"/>
<path d="M465.986 574.748C465.986 574.748 404.465 589.792 402.96 592.75C401.455 595.709 425.532 694.421 425.532 694.421L421.043 850.124C421.043 850.124 440.931 858.373 475.09 859.501C509.249 860.63 529.113 859.125 545.992 856.117C562.87 853.108 583.837 847.466 583.837 847.466L580.075 695.9C580.075 695.9 601.469 594.606 601.092 593.477C600.716 592.349 549.302 572.842 530.166 573.218C511.03 573.594 465.986 574.748 465.986 574.748Z" fill="black" stroke="black" stroke-linecap="round" stroke-linejoin="round"/>
<path d="M475.868 562.562L470.501 568.755L462.626 575.124L451.44 595.383L468.695 596.135L455.202 607.017C455.202 607.017 471.328 637.405 480.282 648.663C489.235 659.921 503.205 686.699 503.205 686.699C503.205 686.699 522.316 653.903 529.063 646.03C535.809 638.157 546.619 618.65 550.456 613.761C552.965 610.374 555.101 606.726 556.826 602.88L542.957 596.135L555.723 588.613C555.723 588.613 540.675 574.723 538.442 569.482C536.21 564.242 535.458 560.481 531.32 560.857C527.182 561.233 475.868 562.562 475.868 562.562Z" fill="#FF7900" stroke="black" stroke-linecap="round" stroke-linejoin="round"/>
<path d="M475.868 562.562L503.18 686.699L532.749 564.067L475.868 562.562Z" fill="white" stroke="black" stroke-linecap="round" stroke-linejoin="round"/>
<path d="M475.868 562.562L484.997 604.133L503.932 581.517L522.968 604.635L532.749 564.067L475.868 562.562Z" fill="white" stroke="black" stroke-linecap="round" stroke-linejoin="round"/>
<path d="M475.868 546.14V562.562C475.868 562.562 503.18 581.267 503.932 581.517C504.685 581.768 532.749 563.966 532.749 563.966V540.573C532.749 540.573 517.074 555.617 507.669 555.742C498.264 555.868 475.868 546.14 475.868 546.14Z" fill="white" stroke="black" stroke-linecap="round" stroke-linejoin="round"/>
<path d="M494.327 593.904L501.65 603.757L494.828 644.476L503.18 686.699L513.287 644.225L508.723 603.757L514.04 594.154L503.933 581.517L494.327 593.904Z" fill="black" stroke="black" stroke-linecap="round" stroke-linejoin="round"/>
<path d="M511.055 618.274H501.675V621.584H511.055V618.274Z" fill="white"/>
<path d="M518.529 766.832L508.021 772.473C508.021 772.473 496.383 779.218 491.894 782.227C487.405 785.235 471.629 808.478 472.758 810.358C474.6 813.254 477.203 815.587 480.282 817.103C482.79 817.855 487.806 821.24 493.048 821.992C498.289 822.745 504.309 823.848 511.055 818.984C517.802 814.119 526.805 799.853 527.934 797.972C530.119 795.408 532.509 793.027 535.082 790.852L518.529 766.832Z" fill="white" stroke="black" stroke-linecap="round" stroke-linejoin="round"/>
<path d="M601.092 592.75C601.092 592.75 605.205 593.502 608.616 602.779C612.027 612.056 624.743 719.469 624.366 725.085C623.838 729.04 622.291 732.789 619.877 735.967L539.621 803.865L515.218 763.748C515.218 763.748 548.625 737.496 557.252 730.376C565.88 723.255 578.269 711.621 578.269 711.621L579.398 690.986L601.092 592.75Z" fill="black" stroke="black" stroke-linecap="round" stroke-linejoin="round"/>
<path d="M484.044 767.584C488.389 768.229 492.77 768.605 497.161 768.712C499.042 768.336 508.046 768.336 512.56 772.849C516.695 776.467 521.22 779.612 526.053 782.227C526.053 782.227 531.696 783.33 527.182 787.091C522.667 790.852 520.059 791.228 515.921 789.723C513.46 788.823 510.947 788.069 508.397 787.467C508.397 787.467 520.41 795.34 522.667 799.101C524.924 802.862 530.542 806.221 523.044 810.358L515.52 814.47C507.305 815.591 499.03 816.219 490.74 816.351C483.216 815.975 476.094 804.341 474.614 800.981C473.115 798.076 471.352 795.314 469.347 792.732L484.044 767.584Z" fill="white" stroke="black" stroke-linecap="round" stroke-linejoin="round"/>
<path d="M402.96 592.75C402.96 592.75 398.822 593.502 395.436 602.779C392.051 612.056 379.31 719.469 379.686 725.085C380.219 729.043 381.775 732.794 384.201 735.967L464.457 803.865L488.834 763.748C488.834 763.748 455.428 737.496 446.8 730.376C438.173 723.255 425.783 711.621 425.783 711.621L424.68 690.986L402.96 592.75Z" fill="black" stroke="black" stroke-linecap="round" stroke-linejoin="round"/>
<path d="M512.535 703.798C512.54 704.543 512.323 705.273 511.913 705.895C511.503 706.516 510.917 707.002 510.23 707.291C509.543 707.579 508.786 707.657 508.054 707.515C507.323 707.373 506.65 707.017 506.122 706.492C505.593 705.967 505.232 705.297 505.085 704.566C504.938 703.836 505.011 703.079 505.295 702.39C505.579 701.701 506.061 701.112 506.68 700.698C507.299 700.284 508.028 700.062 508.773 700.062C509.766 700.062 510.719 700.455 511.424 701.155C512.129 701.855 512.528 702.805 512.535 703.798Z" fill="white"/>
<path d="M512.535 749.205C512.535 749.949 512.314 750.676 511.901 751.295C511.488 751.913 510.9 752.395 510.213 752.68C509.525 752.965 508.769 753.039 508.039 752.894C507.309 752.749 506.639 752.391 506.113 751.865C505.587 751.339 505.228 750.669 505.083 749.939C504.938 749.21 505.013 748.453 505.297 747.766C505.582 747.079 506.064 746.492 506.683 746.078C507.302 745.665 508.029 745.445 508.773 745.445C509.771 745.445 510.728 745.841 511.433 746.546C512.139 747.251 512.535 748.208 512.535 749.205V749.205Z" fill="white"/>
<path d="M438.724 1154.13C438.724 1154.13 428.692 1167.12 422.021 1175.77C415.35 1184.42 413.996 1191.22 420.165 1193.7C426.335 1196.18 450.462 1201.22 459.741 1195.55C466.657 1190.87 472.894 1185.25 478.276 1178.86L485.072 1168.35C485.072 1168.35 480.056 1161.56 465.309 1154.13C461.222 1151.94 456.655 1150.79 452.017 1150.79C447.378 1150.79 442.812 1151.94 438.724 1154.13Z" fill="black" stroke="black" stroke-linecap="round" stroke-linejoin="round"/>
<path d="M581.856 1154.13C581.856 1154.13 591.738 1167.12 598.534 1175.77C605.331 1184.42 606.585 1191.22 600.39 1193.7C594.195 1196.18 570.094 1201.22 560.814 1195.55C553.898 1190.87 547.662 1185.25 542.28 1178.86L535.483 1168.4C535.483 1168.4 540.499 1161.61 555.271 1154.18C559.355 1151.99 563.919 1150.83 568.557 1150.82C573.196 1150.81 577.764 1151.95 581.856 1154.13V1154.13Z" fill="black" stroke="black" stroke-linecap="round" stroke-linejoin="round"/>
<path d="M466.488 499.353C466.488 499.353 449.283 486.466 446.249 479.295C443.214 472.124 489.486 436.821 496.057 435.292C502.628 433.762 512.259 433.787 517.3 436.821C522.341 439.855 563.573 475.233 562.82 480.298C562.068 485.363 540.574 502.537 540.574 502.537C536.193 497.765 530.884 493.936 524.972 491.285C519.06 488.634 512.669 487.216 506.19 487.118C492.002 486.95 478.119 491.229 466.488 499.353V499.353Z" fill="black" stroke="black" stroke-linecap="round" stroke-linejoin="round"/>
<path d="M504.685 472.049C495.867 471.99 487.129 473.719 478.999 477.132C470.869 480.545 463.516 485.571 457.384 491.907C462.124 496.069 466.513 499.429 466.513 499.429C478.156 491.34 492.038 487.096 506.215 487.293C512.694 487.391 519.085 488.809 524.997 491.461C530.909 494.112 536.218 497.941 540.599 502.713C540.599 502.713 543.81 500.206 547.822 496.696C540.399 486.416 526.229 472.375 504.685 472.049Z" stroke="black" stroke-linecap="round" stroke-linejoin="round"/>
<path d="M464.783 498.426C464.783 498.426 466.764 535.759 469.573 541.376C472.382 546.992 488.383 562.989 493.148 566.624C497.913 570.26 507.469 569.432 513.212 566.925C518.955 564.418 535.383 547.819 537.64 537.163C539.897 526.507 539.897 497.047 539.897 497.047C535.567 492.837 530.413 489.566 524.76 487.439C519.107 485.312 513.075 484.375 507.042 484.686C486.402 485.789 469.849 491.43 464.783 498.426Z" fill="white" stroke="black" stroke-linecap="round" stroke-linejoin="round"/>
<path d="M464.783 498.426C468.74 500.588 473.057 502.015 477.523 502.638C483.041 502.914 499.092 491.957 507.118 493.662C515.143 495.367 525.1 505.17 531.47 504.869C533.281 504.818 535.053 504.336 536.641 503.464C538.228 502.592 539.585 501.355 540.6 499.855C537.491 494.85 533.379 490.545 528.523 487.209C523.667 483.873 518.172 481.58 512.385 480.473C492.446 476.537 470.877 487.77 464.783 498.426Z" fill="#FF7900" stroke="black" stroke-linecap="round" stroke-linejoin="round"/>
<path d="M492.872 503.967C490.238 502.63 487.25 502.152 484.33 502.602C481.41 503.052 478.705 504.406 476.595 506.474" stroke="black" stroke-linecap="round" stroke-linejoin="round"/>
<path d="M513.939 503.766C516.621 502.738 519.519 502.403 522.364 502.793C525.21 503.183 527.911 504.286 530.216 505.998" stroke="black" stroke-linecap="round" stroke-linejoin="round"/>
<path d="M487.104 516.278C488.42 516.278 489.486 514.571 489.486 512.466C489.486 510.362 488.42 508.655 487.104 508.655C485.788 508.655 484.721 510.362 484.721 512.466C484.721 514.571 485.788 516.278 487.104 516.278Z" fill="black"/>
<path d="M520.385 516.278C521.701 516.278 522.768 514.571 522.768 512.466C522.768 510.362 521.701 508.655 520.385 508.655C519.069 508.655 518.002 510.362 518.002 512.466C518.002 514.571 519.069 516.278 520.385 516.278Z" fill="black"/>
<path d="M508.873 508.53V530.419L497.637 528.463" stroke="black" stroke-linecap="round" stroke-linejoin="round"/>
<path d="M501.6 529.29C498.903 530.329 496.28 531.553 493.75 532.951C490.988 534.478 488.07 535.705 485.047 536.612C483.919 536.888 481.586 537.916 494.703 541.626C507.82 545.337 523.219 539.47 523.771 537.264C523.771 537.264 522.868 537.414 516.422 534.255C512.993 532.364 509.335 530.923 505.538 529.967L501.6 529.29Z" fill="black"/>
<path d="M465.485 506.7C465.485 506.7 459.415 500.105 456.13 506.424C452.844 512.742 455.879 516.804 458.638 520.59C460.735 523.176 463.429 525.215 466.488 526.532L465.485 506.7Z" fill="white" stroke="black" stroke-linecap="round" stroke-linejoin="round"/>
<path d="M539.22 506.7C539.22 506.7 545.289 500.105 548.575 506.424C551.86 512.742 548.826 516.804 546.067 520.59C543.955 523.131 541.262 525.126 538.217 526.407L539.22 506.7Z" fill="white" stroke="black" stroke-linecap="round" stroke-linejoin="round"/>
</svg>
